HIERARCHY
ROOT hips
{
  OFFSET 0 9.313263304106702 1.2146308026317778
  CHANNELS 6 Xposition Yposition Zposition Yrotation Xrotation Zrotation
  JOINT spine
  {
    OFFSET -6.402521e-31 0.5173342420023708 0
    CHANNELS 3 Yrotation Xrotation Zrotation
    JOINT chest
    {
      OFFSET 0 1.130544299341115 0
      CHANNELS 3 Yrotation Xrotation Zrotation
      JOINT upperChest
      {
        OFFSET 0 1.0863555061129995 0
        CHANNELS 3 Yrotation Xrotation Zrotation
        JOINT neck
        {
          OFFSET 0 1.3773706506454462 0
          CHANNELS 3 Yrotation Xrotation Zrotation
          JOINT head
          {
            OFFSET 0 0.7374408940073979 0
            CHANNELS 3 Yrotation Xrotation Zrotation
            JOINT leftEye
            {
              OFFSET 0.25066580148932727 0.6408406698778757 0.15963719178883284
              CHANNELS 3 Yrotation Xrotation Zrotation
              End Site
              {
                OFFSET 0.25066580148932727 0.6408406698778757 0.15963719178883284
              }
            }
            JOINT rightEye
            {
              OFFSET -0.25066576739704244 0.6408406384191823 0.15963727561643756
              CHANNELS 3 Yrotation Xrotation Zrotation
              End Site
              {
                OFFSET -0.25066576739704244 0.6408406384191823 0.15963727561643756
              }
            }
          }
        }
        JOINT leftShoulder
        {
          OFFSET 0.3761817444281191 1.0539491987447769 0
          CHANNELS 3 Yrotation Xrotation Zrotation
          JOINT leftUpperArm
          {
            OFFSET 0.8702844380000002 0 0
            CHANNELS 3 Yrotation Xrotation Zrotation
            JOINT leftLowerArm
            {
              OFFSET 2.198527310000323 0 0
              CHANNELS 3 Yrotation Xrotation Zrotation
              JOINT leftHand
              {
                OFFSET 2.146852313968281 0 0
                CHANNELS 3 Yrotation Xrotation Zrotation
                JOINT leftIndexProximal
                {
                  OFFSET 0.6585177834681599 0.07380250427007962 0.18382213159631788
                  CHANNELS 3 Yrotation Xrotation Zrotation
                  JOINT leftIndexIntermediate
                  {
                    OFFSET 0.3323021288626682 -0.009606893929485771 -0.012820872253340998
                    CHANNELS 3 Yrotation Xrotation Zrotation
                    JOINT leftIndexDistal
                    {
                      OFFSET 0.2045908926985518 -0.0071133989147997845 -0.006828784783599051
                      CHANNELS 3 Yrotation Xrotation Zrotation
                      End Site
                      {
                        OFFSET 0.2045908926985518 -0.0071133989147997845 -0.006828784783599051
                      }
                    }
                  }
                }
                JOINT leftLittleProximal
                {
                  OFFSET 0.6110054258835662 0.07380246363125398 -0.29175655876064077
                  CHANNELS 3 Yrotation Xrotation Zrotation
                  JOINT leftLittleIntermediate
                  {
                    OFFSET 0.3144281999999998 -2.5124724523095665e-9 1.8658118799974588e-7
                    CHANNELS 3 Yrotation Xrotation Zrotation
                    JOINT leftLittleDistal
                    {
                      OFFSET 0.18116185580251631 0.002815456192251098 0.0034826415518049436
                      CHANNELS 3 Yrotation Xrotation Zrotation
                      End Site
                      {
                        OFFSET 0.18116185580251631 0.002815456192251098 0.0034826415518049436
                      }
                    }
                  }
                }
                JOINT leftMiddleProximal
                {
                  OFFSET 0.6637478005691111 0.07380246480054087 0.02046981859247815
                  CHANNELS 3 Yrotation Xrotation Zrotation
                  JOINT leftMiddleIntermediate
                  {
                    OFFSET 0.3705733999999994 -2.9611069152224445e-9 9.35054791928458e-8
                    CHANNELS 3 Yrotation Xrotation Zrotation
                    JOINT leftMiddleDistal
                    {
                      OFFSET 0.22861063500000056 -1.82673876025774e-9 -1.6740782024515788e-7
                      CHANNELS 3 Yrotation Xrotation Zrotation
                      End Site
                      {
                        OFFSET 0.22861063500000056 -1.82673876025774e-9 -1.6740782024515788e-7
                      }
                    }
                  }
                }
                JOINT leftRingProximal
                {
                  OFFSET 0.6561845547265777 0.07380246406440083 -0.13588087571513918
                  CHANNELS 3 Yrotation Xrotation Zrotation
                  JOINT leftRingIntermediate
                  {
                    OFFSET 0.3437531000000005 -2.746796123886952e-9 1.4935781944558357e-7
                    CHANNELS 3 Yrotation Xrotation Zrotation
                    JOINT leftRingDistal
                    {
                      OFFSET 0.1983118991198174 -0.002467117924596085 -0.004538141969590015
                      CHANNELS 3 Yrotation Xrotation Zrotation
                      End Site
                      {
                        OFFSET 0.1983118991198174 -0.002467117924596085 -0.004538141969590015
                      }
                    }
                  }
                }
                JOINT leftThumbProximal
                {
                  OFFSET 0.09767004258864787 -0.14930060425447422 -0.07008212897521154
                  CHANNELS 3 Yrotation Xrotation Zrotation
                  JOINT leftThumbIntermediate
                  {
                    OFFSET 0.36682123028154767 -0.015768465060082004 0.28693641268151077
                    CHANNELS 3 Yrotation Xrotation Zrotation
                    JOINT leftThumbDistal
                    {
                      OFFSET 0.21091084272403915 -0.016756648201192714 0.1933767059105508
                      CHANNELS 3 Yrotation Xrotation Zrotation
                      End Site
                      {
                        OFFSET 0.21091084272403915 -0.016756648201192714 0.1933767059105508
                      }
                    }
                  }
                }
              }
            }
          }
        }
        JOINT rightShoulder
        {
          OFFSET -0.37618174442811925 1.0539491987447769 0
          CHANNELS 3 Yrotation Xrotation Zrotation
          JOINT rightUpperArm
          {
            OFFSET -0.870284438 0 0
            CHANNELS 3 Yrotation Xrotation Zrotation
            JOINT rightLowerArm
            {
              OFFSET -2.1985273100003235 0 0
              CHANNELS 3 Yrotation Xrotation Zrotation
              JOINT rightHand
              {
                OFFSET -2.1468523139682802 0 0
                CHANNELS 3 Yrotation Xrotation Zrotation
                JOINT rightIndexProximal
                {
                  OFFSET -0.6585177834681599 0.07380250427007962 0.18382213159631788
                  CHANNELS 3 Yrotation Xrotation Zrotation
                  JOINT rightIndexIntermediate
                  {
                    OFFSET -0.3323021288626682 -0.009606893929485771 -0.012820872253340998
                    CHANNELS 3 Yrotation Xrotation Zrotation
                    JOINT rightIndexDistal
                    {
                      OFFSET -0.2045908926985518 -0.0071133989147997845 -0.006828784783599051
                      CHANNELS 3 Yrotation Xrotation Zrotation
                      End Site
                      {
                        OFFSET -0.2045908926985518 -0.0071133989147997845 -0.006828784783599051
                      }
                    }
                  }
                }
                JOINT rightLittleProximal
                {
                  OFFSET -0.6110054258835662 0.07380246363125398 -0.29175655876064077
                  CHANNELS 3 Yrotation Xrotation Zrotation
                  JOINT rightLittleIntermediate
                  {
                    OFFSET -0.3144281999999998 -2.5124724523095665e-9 1.8658118799974588e-7
                    CHANNELS 3 Yrotation Xrotation Zrotation
                    JOINT rightLittleDistal
                    {
                      OFFSET -0.18116185580251631 0.002815456192251098 0.0034826415518049436
                      CHANNELS 3 Yrotation Xrotation Zrotation
                      End Site
                      {
                        OFFSET -0.18116185580251631 0.002815456192251098 0.0034826415518049436
                      }
                    }
                  }
                }
                JOINT rightMiddleProximal
                {
                  OFFSET -0.6637478005691111 0.07380246480054087 0.02046981859247815
                  CHANNELS 3 Yrotation Xrotation Zrotation
                  JOINT rightMiddleIntermediate
                  {
                    OFFSET -0.3705733999999994 -2.9611069152224445e-9 9.35054791928458e-8
                    CHANNELS 3 Yrotation Xrotation Zrotation
                    JOINT rightMiddleDistal
                    {
                      OFFSET -0.22861063500000056 -1.82673876025774e-9 -1.6740782024515788e-7
                      CHANNELS 3 Yrotation Xrotation Zrotation
                      End Site
                      {
                        OFFSET -0.22861063500000056 -1.82673876025774e-9 -1.6740782024515788e-7
                      }
                    }
                  }
                }
                JOINT rightRingProximal
                {
                  OFFSET -0.6561845547265777 0.07380246406440083 -0.13588087571513918
                  CHANNELS 3 Yrotation Xrotation Zrotation
                  JOINT rightRingIntermediate
                  {
                    OFFSET -0.3437531000000005 -2.746796123886952e-9 1.4935781944558357e-7
                    CHANNELS 3 Yrotation Xrotation Zrotation
                    JOINT rightRingDistal
                    {
                      OFFSET -0.1983118991198174 -0.002467117924596085 -0.004538141969590015
                      CHANNELS 3 Yrotation Xrotation Zrotation
                      End Site
                      {
                        OFFSET -0.1983118991198174 -0.002467117924596085 -0.004538141969590015
                      }
                    }
                  }
                }
                JOINT rightThumbProximal
                {
                  OFFSET -0.09767004258864787 -0.14930060425447422 -0.07008212897521154
                  CHANNELS 3 Yrotation Xrotation Zrotation
                  JOINT rightThumbIntermediate
                  {
                    OFFSET -0.36682123028154767 -0.015768465060082004 0.28693641268151077
                    CHANNELS 3 Yrotation Xrotation Zrotation
                    JOINT rightThumbDistal
                    {
                      OFFSET -0.21091084272403915 -0.016756648201192714 0.1933767059105508
                      CHANNELS 3 Yrotation Xrotation Zrotation
                      End Site
                      {
                        OFFSET -0.21091084272403915 -0.016756648201192714 0.1933767059105508
                      }
                    }
                  }
                }
              }
            }
          }
        }
      }
    }
  }
  JOINT leftUpperLeg
  {
    OFFSET 0.7715603 -0.3993844658041501 0
    CHANNELS 3 Yrotation Xrotation Zrotation
    JOINT leftLowerLeg
    {
      OFFSET 0 -3.529830000249343 0
      CHANNELS 3 Yrotation Xrotation Zrotation
      JOINT leftFoot
      {
        OFFSET 0 -4.154939295409685 0.004208579085223096
        CHANNELS 3 Yrotation Xrotation Zrotation
        JOINT leftToes
        {
          OFFSET 0 -0.6353414391261847 1.10414981190622
          CHANNELS 3 Yrotation Xrotation Zrotation
          End Site
          {
            OFFSET 0 -0.6015820691747853 1.10414981190622
          }
        }
      }
    }
  }
  JOINT rightUpperLeg
  {
    OFFSET -0.7715603 -0.3993844658041501 0
    CHANNELS 3 Yrotation Xrotation Zrotation
    JOINT rightLowerLeg
    {
      OFFSET 0 -3.529830000249343 0
      CHANNELS 3 Yrotation Xrotation Zrotation
      JOINT rightFoot
      {
        OFFSET 0 -4.154939295409685 0.004208579085223096
        CHANNELS 3 Yrotation Xrotation Zrotation
        JOINT rightToes
        {
          OFFSET 0 -0.6353414391261847 1.10414981190622
          CHANNELS 3 Yrotation Xrotation Zrotation
          End Site
          {
            OFFSET 0 -0.6015820691747853 1.10414981190622
          }
        }
      }
    }
  }
}
MOTION
Frames: 4
Frame Time: 0.03333333333333333
0.0413784384727478 8.785305023193358 1.3490773693868992 1.5779136774185638 -0.8929625207818853 -5.384200059743697 -1.1978249514773893 1.2977635558741953 2.9901274271819673 1.1154040343119949 1.3545641114965377 11.82036329798039 0 0 0 -0.30474528428096725 1.0452931455073966 -2.1695463684194363 0.5443828916677146 1.5848594516760102 -8.125439090548742 0 0 0 0 0 0 -13.78996041549992 3.479364116674995 -5.897847887861435 3.5230110804054955 4.025235625079919 -83.43060589015788 -14.506750263385868 -0.00002519981259449323 0.000017783116520776245 4.1718819715923585 -27.530163163543648 -11.347227863419674 4.666379794485692 0.3377454456381861 -7.816525912334482 2.8352065244339246 0.38902078873359336 -20.54713435534013 0.8092484737596445 0.03452942312952552 -10.16932784316205 16.293309736328467 5.494340713532643 -35.37887782142332 3.9918028097600864 1.5251502512213033 -45.543749098981806 2.8329856073110187 0.5568635778798822 -20.498780141679802 8.766892662938348 0.9009497515473396 -15.692642668504691 3.9942456553742187 0.9161712477836853 -33.33645601594186 1.4912582323814139 0.17075444840820642 -12.259979201756638 11.684961088328594 2.5032506099670617 -26.39163268506004 3.8883391416950746 1.707160507599524 -40.09945628167511 1.8351165812867338 0.544808377193474 -19.32669206442941 0.21223165864929347 18.639551805273932 11.135301773895629 31.896617830835226 0.8128270325559601 -2.731601012834697 8.67821793239814 1.7973341792628925 -0.18776349732235625 3.334679946377924 4.500523025073835 5.733510642327407 0.6560187267935388 -1.2196318788464173 67.33147284493522 17.736782073688726 -0.000003045081168472638 -0.000012872811527134034 -9.297206974375525 -11.050099523421057 11.93641505525261 -4.690091126823464 0.3409983802933162 7.816598142388442 -2.795136825268802 0.38290178757763804 20.547232291918327 -0.22654018291052505 -0.19321310428233865 13.844661205343167 -16.052849848949347 5.324146661940885 35.400365953894855 -4.028969934003072 1.2635480339949965 45.55004394227464 -0.3119465205749147 -0.7652552152414318 22.12468105923817 -8.825804595007327 0.9174783291292525 15.691786696849139 -3.900999538620901 0.8949567518649163 33.336945019618405 -1.725950497157545 0.21556014480810978 15.891667692377304 -11.668421037497497 2.4950173103591298 26.39237368161128 -3.9123713363108092 1.7116415050082356 40.09927499012137 0.023250297604595394 -0.15169326255512058 17.815306469597633 -0.3228564924813492 18.662899219942084 -11.194161961466444 -31.78223503602116 0.7795789433218464 2.7762258722589346 -7.715269999130723 1.639315267017168 1.007227157508624 11.453995415603627 -19.210470197809094 12.125833550682971 10.23373952643584 21.756307153606546 6.167478056404618 3.35292221264036 -1.4973209972348756 -8.87087023235363 1.1009223547399229e-7 -0.4463342712326031 0.0000024264126266559762 -4.969032561334127 -1.59872859367082 10.693384267472261 -5.205231021901988 12.398290253413093 2.1477645489511734 1.0251426944263633 -9.844971687960776 -7.931752201151495 0.0000018376874080601218 -0.5486497864369199 9.010573287732719e-7
0.04961716857823458 8.785181045532225 1.3472023833668976 1.7091611643663525 -0.9484384519808629 -5.206941185874339 -1.1373266083579114 1.3354517115052194 2.9783034020661 1.1394320948007022 1.3705197827835256 11.713362535462148 0 0 0 -0.3248201111236184 1.0909147845596998 -2.1698217224182543 0.4517910349904534 1.7184036466445871 -8.05169825871889 0 0 0 0 0 0 -13.878783926412284 3.4649941272900846 -5.812542914481069 3.2692161383141194 3.0288731086435425 -83.11933452616618 -14.2897242966954 0.000002399342464159207 0.00001734030025847272 4.345044163601495 -26.36860295921131 -11.657044686805769 4.751438879618295 0.3921995952921826 -8.550938931336573 2.9167907358644403 0.42040997333442964 -21.411630834114938 0.8219132557786449 0.03631496431993603 -10.295580326319008 16.33355536653531 5.531093191215909 -36.12359216413121 4.055690548034282 1.5850961442559848 -46.41318710623952 2.844439200349982 0.5625039824130379 -20.625016330829247 8.842370136731699 0.9462073432126513 -16.426510213359645 4.067058561435084 0.9628193878357427 -34.19971122093019 1.503520830844778 0.17382077698167972 -12.386285224339767 11.72829992467095 2.582689240151857 -27.129311570804468 3.9484080579799925 1.7696628835114812 -40.96379494365 1.8464911205451773 0.550114502459478 -19.452919489778207 -0.04155969781334337 18.60177561746323 10.98203857186542 32.218741537759264 0.9165317998171452 -2.6590021850880747 8.778692579205204 1.7282518977306867 -0.06587575958766154 3.42130775562306 4.486393610745746 5.715501081375787 0.047056152835784876 -1.0411885886576315 67.11369589921617 17.656056274839774 -0.000003146404582404333 0.000012927095707771003 -9.888807223388278 -10.38794257146097 12.124716994942927 -4.6908848190087244 0.34110963964268265 7.824489951951853 -2.8055972959658027 0.3868065027133958 20.657653000403055 -0.22654018291052505 -0.19321310428233865 13.844661205343167 -16.058454692310566 5.328035743300592 35.468029470722236 -4.037665336888949 1.2706297903410593 45.66087644035867 -0.3119585276597694 -0.7652480108837192 22.12468105923817 -8.830204593193045 0.9204973409065735 15.745626756197217 -3.906119384961141 0.8981581012746858 33.397096880958934 -1.725950497157545 0.21556014480810978 15.891667692377304 -11.670938726992032 2.500454397276358 26.446068326339457 -3.9183137742188356 1.7177583305520163 40.18432995953391 0.023250297604595394 -0.15169326255512058 17.815306469597633 -0.34736270869974684 18.613531914669753 -11.193306542228452 -31.73927964998441 0.7876819063618294 2.761932304672382 -7.719457524956871 1.6224459771603914 1.0241095887900395 11.501512406867448 -19.124867016711836 11.82585577401548 10.15202757701897 21.734728386786912 6.190912971485366 3.35960190549105 -1.4602063012341073 -8.800177433290594 -0.000010661948266042332 -0.48461890573013944 -1.4011135787918537e-7 -4.926332963931785 -1.765392517055279 10.468155569562372 -5.221137286119158 12.772664774358427 2.1006197121262535 0.8616008891425474 -10.037119536747984 -7.831605637421671 -6.888691307388134e-7 -0.5106931761579047 -0.0000016488286652600333
0.07207598198543895 8.784956498579545 1.3422635018612783 2.0861806061261277 -1.0954988893306534 -4.737476464616154 -0.9706978269695794 1.4370257682471044 2.9447027083501003 1.2075148473218635 1.4144109476228321 11.426978290187987 0 0 0 -0.3855849797031277 1.2066142490344447 -2.168481861318881 0.17534538764809815 2.0671187208372914 -7.8496819311461286 0 0 0 0 0 0 -14.118723141969483 3.4279542549352326 -5.57895917327809 2.4683227379125525 0.4217681504420491 -82.25598471032524 -13.740619986017986 -0.00001614563954501685 -0.00002135468177566923 4.714070062767916 -23.285853089868922 -12.47603066511087 4.9673125548796175 0.5429731080523804 -10.519052103639934 3.1333980646043047 0.5107613740372847 -23.732722815123626 0.855981251664384 0.041341517797439546 -10.634761455396992 16.44393038287362 5.632152446839564 -38.11124371548213 4.222392247071118 1.7505085059725907 -48.74377877116068 2.8751240193521954 0.5777750671457448 -20.963993569112983 9.037182846578032 1.071513913116053 -18.39278406702346 4.2590351256822885 1.0934753967771889 -36.51783479337588 1.536398945952602 0.1821573565809926 -12.725480381944951 11.837082886642941 2.796693611605284 -29.10217826290103 4.104989670062283 1.941949746987335 -43.28511634295842 1.8769727529833005 0.5644517477351164 -19.79188957649304 -0.720219703713674 18.50201394795382 10.576914737716848 33.078162093417625 1.1910206088346493 -2.4627110480448673 9.041603380674616 1.545298964660155 0.2572788605651322 3.6518681786875447 4.449211051158251 5.669780573933089 -1.5463806468041483 -0.5752106815546072 66.546357842526 17.45824432758347 0.000005082045582888619 0.00001386701485568105 -11.47078574735441 -8.589008006798586 12.653702492335247 -4.693081403266433 0.3414135884521141 7.846303962973516 -2.8344300439847765 0.39770806028836586 20.96248047397466 -0.22654018291052505 -0.19321310428233865 13.844661205343167 -16.073920567944 5.338795906354812 35.65471284063506 -4.061598559603857 1.2902945467239628 45.96677135139431 -0.31195668657342673 -0.7652676494292161 22.124685805105127 -8.842333628212153 0.9288562331194421 15.894216765488766 -3.920226753676959 0.9069532744927051 33.56309951492622 -1.725950497157545 0.21556014480810978 15.891667692377304 -11.677847798507143 2.5154787694914615 26.594242655313682 -3.934685368715827 1.7346907968321883 40.419106182915904 0.023250297604595394 -0.15169326255512058 17.815306469597633 -0.41489366298962144 18.47723925428521 -11.190884416429629 -31.620802327705032 0.8100629833485948 2.722406898649599 -7.731021541611772 1.5759152250649522 1.0707451174753673 11.621816035708132 -18.897072581607052 11.020273526255707 9.912548274776928 21.67484579544605 6.250306934843999 3.3750058822858575 -1.3648694998875524 -8.604862063634135 0.000006314534811101058 -0.5874063452186317 -1.9277011875563569e-7 -4.812251252759814 -2.182978236931618 9.863630338039023 -5.3005963808288294 13.720403476507057 1.9742672297852402 0.4350721335290197 -10.5236050562703 -7.553704583512075 0.0000018199502487081656 -0.4162738633762114 -0.0000014066630477188327
0.10536488484252585 8.784839456731621 1.3353042938279767 2.683855027069943 -1.3050925318679398 -4.069360248382053 -0.7202525717947635 1.5853421252067403 2.892549008536429 1.3136048084775822 1.4803314627124107 11.01318969035051 0 0 0 -0.4878574438484352 1.3606544011258568 -2.1624167931958063 -0.28298541013888073 2.553164700206143 -7.549876130187529 0 0 0 0 0 0 -14.470140174962813 3.3783530358787957 -5.2302873277425235 1.0308248907947992 -3.203473632615408 -80.93606246521341 -13.012313043182028 0.000006589862590726889 0.000006528289087648709 5.03333981868002 -18.88859012439746 -13.652468798856502 5.250731548606883 0.7723881223535772 -13.368351128742159 3.440948764634143 0.6573546016315519 -27.101525838435734 0.9053667941456618 0.04897032120691134 -11.127313473558463 16.610756440574946 5.786592328532064 -40.971380654589346 4.451609791935903 2.0017574308650876 -52.118766868773086 2.919556891259607 0.6002722845520801 -21.456243306895416 9.302080662220012 1.2626089749780787 -21.23862056145418 4.528040844251753 1.2967719637942798 -39.883381439615015 1.5840593085227663 0.19461663615391753 -13.218041326725409 11.976897947472356 3.1091088702431318 -31.950096201781736 4.319708790239592 2.2030991300446563 -46.655873288716165 1.9210722588131806 0.5856010529829415 -20.284073233553446 -1.699467847409857 18.358875988788615 10.002452018436635 34.31486409790154 1.5801701256333085 -2.173457402159128 9.408705433178442 1.2841777426128413 0.7172851257004486 3.9824093548397843 4.396887943767023 5.608701468059606 -3.7763208981829544 0.06721326567576182 65.76153136753105 17.209996098447554 -4.3516430573983684e-7 -0.0000038044457740034074 -13.737060435917442 -5.920153409108811 13.461684692168014 -4.696381099717389 0.3418683377246183 7.879177090429315 -2.8777808141031667 0.4144420438842533 21.421935259717717 -0.22654018291052505 -0.19321310428233865 13.844661205343167 -16.097189512602714 5.355168677675457 35.93614093740767 -4.0974746198295176 1.3201557711712706 46.42773374511937 -0.3119439056986538 -0.7652597513185163 22.12467344509632 -8.860553539092622 0.9415318712095386 16.118185484397188 -3.941438513422476 0.9203003072158011 33.813291332848145 -1.725950497157545 0.21556014480810978 15.891667692377304 -11.688155832499524 2.538142883031004 26.817581420052754 -3.959212881709203 1.7603302316129454 40.772937694531294 0.023250297604595394 -0.15169326255512058 17.815306469597633 -0.5165436556819608 18.271825975503926 -11.186751515120367 -31.442353477829094 0.8439087092672077 2.662827578734899 -7.7486186246476905 1.505814052267801 1.1410240170231383 11.780451172426956 -18.578645558034587 9.849786039415152 9.528168626462483 21.60430986499378 6.336629451507913 3.395235090416632 -1.2802048861352182 -8.313441653010335 -0.000019694850910836504 -0.7366284473003073 -1.3748334869365686e-7 -4.648492484511341 -2.7256871243024587 8.983248027636083 -5.49169981617205 14.973873674896593 1.7924788449308477 -0.15843068437347033 -11.164620145789014 -7.131136999442052 8.305610021980467e-8 -0.2945828210821266 -8.905704028200701e-8
